<?xml version="1.0" encoding="UTF-8" standalone="no"?>
<!-- Created with Inkscape (http://www.inkscape.org/) -->

<svg
   xmlns:dc="http://purl.org/dc/elements/1.1/"
   xmlns:cc="http://creativecommons.org/ns#"
   xmlns:rdf="http://www.w3.org/1999/02/22-rdf-syntax-ns#"
   xmlns:svg="http://www.w3.org/2000/svg"
   xmlns="http://www.w3.org/2000/svg"
   xmlns:sodipodi="http://sodipodi.sourceforge.net/DTD/sodipodi-0.dtd"
   xmlns:inkscape="http://www.inkscape.org/namespaces/inkscape"
   version="1.1"
   id="svg2"
   xml:space="preserve"
   width="1459"
   height="476.06668"
   viewBox="0 0 1459 476.06668"
   sodipodi:docname="fak4_logo_cmyk.svg"
   inkscape:version="0.92.4 (5da689c313, 2019-01-14)"><metadata
     id="metadata8"><rdf:RDF><cc:Work
         rdf:about=""><dc:format>image/svg+xml</dc:format><dc:type
           rdf:resource="http://purl.org/dc/dcmitype/StillImage" /><dc:title /></cc:Work></rdf:RDF></metadata><defs
     id="defs6" /><sodipodi:namedview
     pagecolor="#ffffff"
     bordercolor="#666666"
     borderopacity="1"
     objecttolerance="10"
     gridtolerance="10"
     guidetolerance="10"
     inkscape:pageopacity="0"
     inkscape:pageshadow="2"
     inkscape:window-width="640"
     inkscape:window-height="480"
     id="namedview4"
     showgrid="false"
     inkscape:zoom="0.44636419"
     inkscape:cx="374.92733"
     inkscape:cy="166.59273"
     inkscape:current-layer="g10" /><g
     id="g10"
     inkscape:groupmode="layer"
     inkscape:label="ink_ext_XXXXXX"
     transform="matrix(1.3333333,0,0,-1.3333333,0,476.06667)"><g
       id="g12"
       transform="scale(0.1)"><path
         d="m 0,870.449 c 0,0 189.59,1840.001 1290,1840.001 650,0 620,-880 620,-880 l -379.37,-0.63 c 0,0 31.87,513.13 -255.63,495.63 C 987.5,2307.95 524.16,2014.92 380,840.449 l -380,30"
         style="fill:#811874;fill-opacity:1;fill-rule:nonzero;stroke:none"
         id="path14"
         inkscape:connector-curvature="0" /><path
         d="M 1910.21,820.449 H 1522.5 v 715.001 h 387.71 V 820.449"
         style="fill:#811874;fill-opacity:1;fill-rule:nonzero;stroke:none"
         id="path16"
         inkscape:connector-curvature="0" /><path
         d="m 2562.5,1832.95 h -387.71 v 1737.5 h 387.71 v -1737.5"
         style="fill:#811874;fill-opacity:1;fill-rule:nonzero;stroke:none"
         id="path18"
         inkscape:connector-curvature="0" /><path
         d="m 2164.95,1535 h 382.5 c 0,0 48.7,-1233.719 363.21,-1135.961 261.61,81.313 389.34,383.91 389.34,383.91 L 3602.45,530 c 0,0 -299.95,-530 -747.5,-530 -324.28,0 -659.95,197.949 -690,1535"
         style="fill:#811874;fill-opacity:1;fill-rule:nonzero;stroke:none"
         id="path20"
         inkscape:connector-curvature="0" /><path
         d="m 2485,2745.45 h 632.5 v 382.504 H 2485 Z"
         style="fill:#811874;fill-opacity:1;fill-rule:nonzero;stroke:none"
         id="path22"
         inkscape:connector-curvature="0" /><path
         d="m 2951.7,2397.32 h 101.16 l 238.86,-306.03 c 25.51,-33.15 45.91,-61.2 62.91,-86.71 h 1.7 c -1.7,29.76 -1.7,63.76 -1.7,94.36 v 298.38 h 102.86 v -560.2 h -93.51 l -247.37,318.78 c -24.65,31.44 -44.2,59.5 -62.9,85.85 h -1.7 c 1.7,-22.95 1.7,-55.26 1.7,-86.7 V 1837.12 H 2951.7 v 560.2"
         style="fill:#231f20;fill-opacity:1;fill-rule:nonzero;stroke:none"
         id="path24"
         inkscape:connector-curvature="0" /><path
         d="m 3738.81,2022.43 c -26.35,-0.85 -45.06,-5.1 -58.66,-12.74 -17,-9.36 -24.65,-25.51 -24.65,-45.91 0,-34.85 22.95,-55.26 59.5,-55.26 37.41,0 64.61,18.71 78.21,29.76 v 85.85 z m 62.9,-147.05 c -28.9,-26.35 -65.46,-46.76 -115.61,-46.76 -76.51,0 -133.46,51 -133.46,128.36 0,54.41 26.35,88.4 68.01,109.66 28.05,14.44 62.9,21.25 103.71,22.95 l 68.85,2.55 v 12.75 c 0,46.75 -30.6,67.15 -77.36,67.15 -39.95,0 -76.5,-12.74 -105.41,-28.05 l -33.15,65.46 c 47.61,26.35 99.46,39.96 155.57,39.96 107.96,0 161.51,-49.31 161.51,-146.22 v -163.21 c 0,-46.75 1.7,-81.61 7.65,-102.86 h -85.01 l -15.3,38.26"
         style="fill:#231f20;fill-opacity:1;fill-rule:nonzero;stroke:none"
         id="path26"
         inkscape:connector-curvature="0" /><path
         d="m 4028.63,1936.57 v 223.58 h -72.25 v 79.05 h 72.25 v 93.51 l 101.16,29.75 V 2239.2 h 121.56 l -24.65,-79.05 h -96.91 v -198.92 c 0,-37.4 12.75,-51.01 39.11,-51.01 23.8,0 45.9,9.36 61.2,19.56 l 30.6,-69.72 c -28.9,-19.55 -77.35,-31.44 -117.31,-31.44 -71.4,0 -114.76,40.8 -114.76,107.95"
         style="fill:#231f20;fill-opacity:1;fill-rule:nonzero;stroke:none"
         id="path28"
         inkscape:connector-curvature="0" /><path
         d="m 4331.23,1907.68 c -9.35,22.1 -13.61,46.74 -13.61,84.16 v 247.36 h 101.16 v -237.17 c 0,-21.25 2.55,-37.4 8.5,-50.15 10.2,-23.8 29.76,-36.56 60.36,-36.56 33.15,0 64.6,16.16 82.45,35.71 v 288.17 h 102.01 v -302.63 c 0,-43.34 0.85,-78.2 6.8,-99.45 h -86.71 l -15.3,41.66 c -30.6,-27.21 -72.25,-50.16 -124.96,-50.16 -39.1,0 -96.06,16.15 -120.7,79.06"
         style="fill:#231f20;fill-opacity:1;fill-rule:nonzero;stroke:none"
         id="path30"
         inkscape:connector-curvature="0" /><path
         d="m 4772.36,2239.2 h 85.86 l 11.05,-45.05 c 36.56,36.55 69.71,55.26 110.51,55.26 18.7,0 40.81,-5.11 56.95,-16.16 l -35.7,-85.86 c -17.85,11.06 -34,13.61 -45.9,13.61 -26.36,0 -48.46,-11.06 -81.61,-39.95 v -283.93 h -101.16 v 402.08"
         style="fill:#231f20;fill-opacity:1;fill-rule:nonzero;stroke:none"
         id="path32"
         inkscape:connector-curvature="0" /><path
         d="m 5040.96,2239.2 h 102.86 l 85,-272.87 h 1.71 l 85,272.87 h 79.06 l 88.4,-272.87 h 1.71 l 83.3,272.87 h 100.31 l -148.76,-404.62 h -74.81 l -88.41,272.86 h -1.7 l -90.1,-272.86 h -78.21 l -145.36,404.62"
         style="fill:#231f20;fill-opacity:1;fill-rule:nonzero;stroke:none"
         id="path34"
         inkscape:connector-curvature="0" /><path
         d="m 5720.95,2239.2 h 102 v -402.08 h -102 z m -11.06,125.81 c 0,34 26.36,61.2 62.06,61.2 35.71,0 62.9,-26.35 62.9,-61.2 0,-33.15 -27.19,-60.35 -62.9,-60.35 -35.7,0 -62.06,26.35 -62.06,60.35"
         style="fill:#231f20;fill-opacity:1;fill-rule:nonzero;stroke:none"
         id="path36"
         inkscape:connector-curvature="0" /><path
         d="m 5922.39,1941.68 c 30.6,-19.55 68.86,-33.16 109.66,-33.16 40.8,0 70.56,11.92 70.56,42.51 0,68 -188.72,42.51 -188.72,176.81 0,71.41 57.8,121.57 152.16,121.57 45.05,0 85,-7.66 118.16,-19.56 v -85.86 c -34,14.46 -71.41,25.5 -113.91,25.5 -34,0 -56.95,-10.19 -56.95,-36.55 0,-63.75 188.71,-39.1 188.71,-179.37 0,-88.39 -76.5,-124.95 -163.21,-124.95 -62.9,0 -114.76,18.71 -147.91,39.1 l 31.45,73.96"
         style="fill:#231f20;fill-opacity:1;fill-rule:nonzero;stroke:none"
         id="path38"
         inkscape:connector-curvature="0" /><path
         d="m 6279.39,1941.68 c 30.6,-19.55 68.86,-33.16 109.66,-33.16 40.8,0 70.56,11.92 70.56,42.51 0,68 -188.72,42.51 -188.72,176.81 0,71.41 57.8,121.57 152.17,121.57 45.05,0 85,-7.66 118.15,-19.56 v -85.86 c -34,14.46 -71.41,25.5 -113.91,25.5 -34,0 -56.95,-10.19 -56.95,-36.55 0,-63.75 188.71,-39.1 188.71,-179.37 0,-88.39 -76.5,-124.95 -163.21,-124.95 -62.9,0 -114.76,18.71 -147.91,39.1 l 31.45,73.96"
         style="fill:#231f20;fill-opacity:1;fill-rule:nonzero;stroke:none"
         id="path40"
         inkscape:connector-curvature="0" /><path
         d="m 6873.55,2081.08 c -1.69,45.91 -23.8,90.96 -77.35,90.96 -50.16,0 -78.21,-42.5 -78.21,-90.96 z m -256.71,-43.34 c 0,120.71 66.29,211.67 181.06,211.67 113.06,0 178.51,-81.62 178.51,-215.07 v -23.8 h -257.57 c 1.7,-62.06 45.91,-102.02 113.05,-102.02 40.82,0 73.12,11.06 102.02,27.2 l 30.6,-69.7 c -42.51,-26.35 -92.65,-37.4 -141.96,-37.4 -147.06,0 -205.71,100.31 -205.71,209.12"
         style="fill:#231f20;fill-opacity:1;fill-rule:nonzero;stroke:none"
         id="path42"
         inkscape:connector-curvature="0" /><path
         d="m 7052.89,2239.2 h 86.7 l 10.2,-45.05 c 42.5,33.16 87.56,55.26 137.72,55.26 63.75,0 129.21,-31.46 129.21,-146.22 v -266.07 h -102.01 v 234.62 c 0,49.31 -10.21,89.26 -62.05,89.26 -33.16,0 -68.86,-17.85 -98.62,-42.5 v -281.38 h -101.15 v 402.08"
         style="fill:#231f20;fill-opacity:1;fill-rule:nonzero;stroke:none"
         id="path44"
         inkscape:connector-curvature="0" /><path
         d="m 7511.88,1941.68 c 30.59,-19.55 68.85,-33.16 109.65,-33.16 40.8,0 70.56,11.92 70.56,42.51 0,68 -188.72,42.51 -188.72,176.81 0,71.41 57.8,121.57 152.17,121.57 45.05,0 85,-7.66 118.15,-19.56 v -85.86 c -34,14.46 -71.4,25.5 -113.9,25.5 -34.01,0 -56.96,-10.19 -56.96,-36.55 0,-63.75 188.71,-39.1 188.71,-179.37 0,-88.39 -76.5,-124.95 -163.21,-124.95 -62.9,0 -114.76,18.71 -147.91,39.1 l 31.46,73.96"
         style="fill:#231f20;fill-opacity:1;fill-rule:nonzero;stroke:none"
         id="path46"
         inkscape:connector-curvature="0" /><path
         d="m 7849.33,2035.19 c 0,124.96 92.65,214.22 212.51,214.22 50.15,0 86.7,-13.61 107.95,-27.21 v -85.86 c -28.04,20.41 -58.65,31.45 -97.75,31.45 -74.8,0 -119.01,-56.1 -119.01,-130.05 0,-82.46 45.06,-127.52 113.91,-127.52 37.41,0 65.45,11.91 93.51,27.21 l 29.75,-69.71 c -32.3,-22.11 -82.46,-39.1 -137.71,-39.1 -130.91,0 -203.16,90.1 -203.16,206.57"
         style="fill:#231f20;fill-opacity:1;fill-rule:nonzero;stroke:none"
         id="path48"
         inkscape:connector-curvature="0" /><path
         d="m 8252.23,2438.97 h 101.15 V 2195 c 36.55,30.6 82.46,54.41 133.47,54.41 63.75,0 128.36,-31.46 128.36,-146.22 v -266.07 h -101.17 v 234.62 c 0,49.31 -10.19,89.26 -62.05,89.26 -34,0 -68.86,-17.85 -98.61,-42.5 v -281.38 h -101.15 v 601.85"
         style="fill:#231f20;fill-opacity:1;fill-rule:nonzero;stroke:none"
         id="path50"
         inkscape:connector-curvature="0" /><path
         d="m 8876.13,2022.43 c -26.35,-0.85 -45.06,-5.1 -58.65,-12.74 -17,-9.36 -24.66,-25.51 -24.66,-45.91 0,-34.85 22.95,-55.26 59.5,-55.26 37.42,0 64.61,18.71 78.22,29.76 v 85.85 z m 62.9,-147.05 c -28.89,-26.35 -65.45,-46.76 -115.6,-46.76 -76.51,0 -133.46,51 -133.46,128.36 0,54.41 26.35,88.4 68,109.66 28.06,14.44 62.91,21.25 103.71,22.95 l 68.86,2.55 v 12.75 c 0,46.75 -30.61,67.15 -77.36,67.15 -39.96,0 -76.51,-12.74 -105.41,-28.05 l -33.15,65.46 c 47.61,26.35 99.45,39.96 155.56,39.96 107.95,0 161.51,-49.31 161.51,-146.22 v -163.21 c 0,-46.75 1.7,-81.61 7.66,-102.86 h -85.01 l -15.31,38.26"
         style="fill:#231f20;fill-opacity:1;fill-rule:nonzero;stroke:none"
         id="path52"
         inkscape:connector-curvature="0" /><path
         d="m 9160.01,2160.15 h -59.5 v 79.05 h 59.5 v 56.1 c 0,94.36 55.25,143.67 136.87,143.67 26.34,0 56.95,-5.1 84.16,-17.86 l -20.41,-80.75 c -17,5.95 -34,11.05 -49.3,11.05 -34.01,0 -49.31,-20.4 -49.31,-55.26 v -56.95 h 104.56 l -24.66,-79.05 h -79.9 v -323.03 h -102.01 v 323.03"
         style="fill:#231f20;fill-opacity:1;fill-rule:nonzero;stroke:none"
         id="path54"
         inkscape:connector-curvature="0" /><path
         d="m 9460.06,1936.57 v 223.58 h -72.26 v 79.05 h 72.26 v 93.51 l 101.15,29.75 V 2239.2 h 121.56 l -24.64,-79.05 h -96.92 v -198.92 c 0,-37.4 12.75,-51.01 39.1,-51.01 23.81,0 45.91,9.36 61.21,19.56 l 30.61,-69.72 c -28.91,-19.55 -77.36,-31.44 -117.32,-31.44 -71.4,0 -114.75,40.8 -114.75,107.95"
         style="fill:#231f20;fill-opacity:1;fill-rule:nonzero;stroke:none"
         id="path56"
         inkscape:connector-curvature="0" /><path
         d="m 9754.14,2438.97 h 101.15 v -483.69 c 0,-28.05 11.06,-36.56 29.76,-36.56 5.1,0 17,1.72 25.5,5.11 l 19.56,-78.22 c -23.81,-10.19 -51.86,-14.43 -74.82,-14.43 -67.15,0 -101.15,33.14 -101.15,96.9 v 510.89"
         style="fill:#231f20;fill-opacity:1;fill-rule:nonzero;stroke:none"
         id="path58"
         inkscape:connector-curvature="0" /><path
         d="m 9994.69,2239.2 h 102.01 v -402.08 h -102.01 z m -11.06,125.81 c 0,34 26.37,61.2 62.07,61.2 35.7,0 62.9,-26.35 62.9,-61.2 0,-33.15 -27.2,-60.35 -62.9,-60.35 -35.7,0 -62.07,26.35 -62.07,60.35"
         style="fill:#231f20;fill-opacity:1;fill-rule:nonzero;stroke:none"
         id="path60"
         inkscape:connector-curvature="0" /><path
         d="m 10176.6,2035.19 c 0,124.96 92.6,214.22 212.5,214.22 50.1,0 86.7,-13.61 108,-27.21 v -85.86 c -28.1,20.41 -58.7,31.45 -97.8,31.45 -74.8,0 -119,-56.1 -119,-130.05 0,-82.46 45,-127.52 113.9,-127.52 37.4,0 65.4,11.91 93.5,27.21 l 29.8,-69.71 c -32.3,-22.11 -82.5,-39.1 -137.8,-39.1 -130.9,0 -203.1,90.1 -203.1,206.57"
         style="fill:#231f20;fill-opacity:1;fill-rule:nonzero;stroke:none"
         id="path62"
         inkscape:connector-curvature="0" /><path
         d="m 10579.5,2438.97 h 101.1 V 2195 c 36.6,30.6 82.5,54.41 133.5,54.41 63.7,0 128.4,-31.46 128.4,-146.22 v -266.07 h -101.2 v 234.62 c 0,49.31 -10.2,89.26 -62.1,89.26 -34,0 -68.8,-17.85 -98.6,-42.5 v -281.38 h -101.1 v 601.85"
         style="fill:#231f20;fill-opacity:1;fill-rule:nonzero;stroke:none"
         id="path64"
         inkscape:connector-curvature="0" /><path
         d="m 3058.8,1454.01 h -163.21 v 83.3 h 442.04 l -26.36,-83.3 H 3160.82 V 977.121 H 3058.8 v 476.889"
         style="fill:#231f20;fill-opacity:1;fill-rule:nonzero;stroke:none"
         id="path66"
         inkscape:connector-curvature="0" /><path
         d="m 3583.27,1221.08 c -1.7,45.92 -23.8,90.96 -77.36,90.96 -50.15,0 -78.2,-42.5 -78.2,-90.96 z m -256.72,-43.34 c 0,120.7 66.31,211.66 181.06,211.66 113.06,0 178.52,-81.6 178.52,-215.06 v -23.81 h -257.57 c 1.7,-62.05 45.9,-102.01 113.06,-102.01 40.8,0 73.1,11.06 102,27.21 l 30.61,-69.71 c -42.51,-26.348 -92.66,-37.399 -141.96,-37.399 -147.06,0 -205.72,100.309 -205.72,209.119"
         style="fill:#231f20;fill-opacity:1;fill-rule:nonzero;stroke:none"
         id="path68"
         inkscape:connector-curvature="0" /><path
         d="m 3745.6,1175.18 c 0,124.96 92.65,214.22 212.52,214.22 50.15,0 86.7,-13.59 107.95,-27.21 v -85.86 c -28.05,20.41 -58.65,31.47 -97.75,31.47 -74.81,0 -119.01,-56.11 -119.01,-130.06 0,-82.46 45.05,-127.52 113.9,-127.52 37.41,0 65.46,11.91 93.51,27.21 l 29.75,-69.71 c -32.3,-22.111 -82.45,-39.099 -137.71,-39.099 -130.91,0 -203.16,90.099 -203.16,206.559"
         style="fill:#231f20;fill-opacity:1;fill-rule:nonzero;stroke:none"
         id="path70"
         inkscape:connector-curvature="0" /><path
         d="m 4148.5,1578.97 h 101.15 v -243.96 c 36.56,30.58 82.46,54.39 133.47,54.39 63.75,0 128.35,-31.45 128.35,-146.21 V 977.121 h -101.15 v 234.619 c 0,49.3 -10.21,89.26 -62.06,89.26 -34,0 -68.86,-17.85 -98.61,-42.5 V 977.121 H 4148.5 v 601.849"
         style="fill:#231f20;fill-opacity:1;fill-rule:nonzero;stroke:none"
         id="path72"
         inkscape:connector-curvature="0" /><path
         d="m 4604.95,1379.2 h 86.71 l 10.2,-45.05 c 42.5,33.16 87.55,55.25 137.71,55.25 63.75,0 129.2,-31.45 129.2,-146.21 V 977.121 h -102 v 234.619 c 0,49.3 -10.2,89.26 -62.06,89.26 -33.15,0 -68.85,-17.85 -98.61,-42.5 V 977.121 H 4604.95 V 1379.2"
         style="fill:#231f20;fill-opacity:1;fill-rule:nonzero;stroke:none"
         id="path74"
         inkscape:connector-curvature="0" /><path
         d="M 5064.79,1379.2 H 5166.8 V 977.121 h -102.01 z m -11.05,125.81 c 0,34 26.35,61.21 62.05,61.21 35.7,0 62.91,-26.35 62.91,-61.21 0,-33.15 -27.21,-60.36 -62.91,-60.36 -35.7,0 -62.05,26.35 -62.05,60.36"
         style="fill:#231f20;fill-opacity:1;fill-rule:nonzero;stroke:none"
         id="path76"
         inkscape:connector-curvature="0" /><path
         d="m 5266.23,1081.69 c 30.6,-19.56 68.85,-33.17 109.66,-33.17 40.8,0 70.55,11.92 70.55,42.5 0,68.01 -188.72,42.52 -188.72,176.82 0,71.4 57.81,121.56 152.17,121.56 45.05,0 85.01,-7.66 118.16,-19.55 v -85.86 c -34,14.45 -71.41,25.51 -113.91,25.51 -34,0 -56.96,-10.2 -56.96,-36.56 0,-63.75 188.72,-39.11 188.72,-179.36 0,-88.4 -76.51,-124.959 -163.21,-124.959 -62.91,0 -114.76,18.711 -147.91,39.099 l 31.45,73.97"
         style="fill:#231f20;fill-opacity:1;fill-rule:nonzero;stroke:none"
         id="path78"
         inkscape:connector-curvature="0" /><path
         d="m 5603.68,1175.18 c 0,124.96 92.66,214.22 212.51,214.22 50.16,0 86.71,-13.59 107.96,-27.21 v -85.86 c -28.05,20.41 -58.65,31.47 -97.75,31.47 -74.81,0 -119.02,-56.11 -119.02,-130.06 0,-82.46 45.06,-127.52 113.92,-127.52 37.4,0 65.45,11.91 93.5,27.21 l 29.75,-69.71 c -32.29,-22.111 -82.45,-39.099 -137.7,-39.099 -130.91,0 -203.17,90.099 -203.17,206.559"
         style="fill:#231f20;fill-opacity:1;fill-rule:nonzero;stroke:none"
         id="path80"
         inkscape:connector-curvature="0" /><path
         d="m 6006.57,1578.97 h 101.15 v -243.96 c 36.56,30.58 82.47,54.39 133.47,54.39 63.75,0 128.36,-31.45 128.36,-146.21 V 977.121 h -101.16 v 234.619 c 0,49.3 -10.2,89.26 -62.05,89.26 -34.01,0 -68.86,-17.85 -98.62,-42.5 V 977.121 h -101.15 v 601.849"
         style="fill:#231f20;fill-opacity:1;fill-rule:nonzero;stroke:none"
         id="path82"
         inkscape:connector-curvature="0" /><path
         d="m 6702.74,1221.08 c -1.7,45.92 -23.8,90.96 -77.35,90.96 -50.16,0 -78.21,-42.5 -78.21,-90.96 z m -256.71,-43.34 c 0,120.7 66.29,211.66 181.06,211.66 113.06,0 178.51,-81.6 178.51,-215.06 v -23.81 h -257.57 c 1.7,-62.05 45.91,-102.01 113.06,-102.01 40.8,0 73.11,11.06 102.01,27.21 l 30.6,-69.71 c -42.51,-26.348 -92.66,-37.399 -141.96,-37.399 -147.06,0 -205.71,100.309 -205.71,209.119"
         style="fill:#231f20;fill-opacity:1;fill-rule:nonzero;stroke:none"
         id="path84"
         inkscape:connector-curvature="0" /><path
         d="m 7086.91,1537.31 h 310.28 l -26.36,-83.3 H 7188.92 V 1304.4 h 178.51 v -83.32 H 7188.92 V 977.121 h -102.01 v 560.189"
         style="fill:#231f20;fill-opacity:1;fill-rule:nonzero;stroke:none"
         id="path86"
         inkscape:connector-curvature="0" /><path
         d="m 7621.57,1162.43 c -26.36,-0.84 -45.06,-5.1 -58.65,-12.74 -17,-9.35 -24.66,-25.5 -24.66,-45.91 0,-34.85 22.95,-55.26 59.51,-55.26 37.41,0 64.6,18.71 78.21,29.77 v 85.84 z m 62.9,-147.05 c -28.89,-26.349 -65.45,-46.759 -115.6,-46.759 -76.51,0 -133.46,50.999 -133.46,128.359 0,54.41 26.35,88.4 68,109.67 28.05,14.43 62.91,21.25 103.71,22.95 l 68.86,2.53 v 12.76 c 0,46.76 -30.61,67.15 -77.36,67.15 -39.96,0 -76.51,-12.74 -105.41,-28.05 l -33.15,65.47 c 47.61,26.35 99.45,39.94 155.56,39.94 107.95,0 161.51,-49.3 161.51,-146.21 v -163.2 c 0,-46.76 1.7,-81.619 7.66,-102.869 h -85.01 l -15.31,38.259"
         style="fill:#231f20;fill-opacity:1;fill-rule:nonzero;stroke:none"
         id="path88"
         inkscape:connector-curvature="0" /><path
         d="m 7877.4,1578.97 h 101.15 v -339.18 h 1.71 l 131.76,139.41 h 115.61 l -164.92,-175.11 178.52,-226.969 h -118.16 l -142.81,186.169 h -1.71 V 977.121 H 7877.4 v 601.849"
         style="fill:#231f20;fill-opacity:1;fill-rule:nonzero;stroke:none"
         id="path90"
         inkscape:connector-curvature="0" /><path
         d="m 8304.95,1047.68 c -9.34,22.09 -13.59,46.74 -13.59,84.16 v 247.36 h 101.15 v -237.16 c 0,-21.25 2.55,-37.41 8.51,-50.16 10.19,-23.81 29.74,-36.56 60.35,-36.56 33.15,0 64.61,16.15 82.46,35.7 v 288.18 h 102 v -302.63 c 0,-43.34 0.85,-78.199 6.81,-99.449 h -86.71 l -15.3,41.659 c -30.61,-27.21 -72.26,-50.159 -124.97,-50.159 -39.1,0 -96.05,16.149 -120.71,79.059"
         style="fill:#231f20;fill-opacity:1;fill-rule:nonzero;stroke:none"
         id="path92"
         inkscape:connector-curvature="0" /><path
         d="m 8751.19,1578.97 h 101.15 v -483.69 c 0,-28.05 11.06,-36.56 29.76,-36.56 5.1,0 17,1.72 25.5,5.11 l 19.56,-78.221 c -23.81,-10.187 -51.86,-14.429 -74.82,-14.429 -67.14,0 -101.15,33.14 -101.15,96.89 v 510.9"
         style="fill:#231f20;fill-opacity:1;fill-rule:nonzero;stroke:none"
         id="path94"
         inkscape:connector-curvature="0" /><path
         d="m 9027.43,1076.57 v 223.57 h -72.25 v 79.06 h 72.25 v 93.5 l 101.15,29.77 V 1379.2 h 121.57 l -24.65,-79.06 h -96.92 v -198.9 c 0,-37.41 12.76,-51.02 39.11,-51.02 23.8,0 45.9,9.36 61.21,19.55 l 30.6,-69.71 c -28.9,-19.548 -77.36,-31.439 -117.31,-31.439 -71.41,0 -114.76,40.799 -114.76,107.949"
         style="fill:#231f20;fill-opacity:1;fill-rule:nonzero;stroke:none"
         id="path96"
         inkscape:connector-curvature="0" /><path
         d="m 9508.54,1491.41 c 0,29.75 22.94,52.7 51.85,52.7 28.06,0 51.86,-22.95 51.86,-52.7 0,-28.9 -23.8,-51.85 -51.86,-51.85 -28.91,0 -51.85,22.95 -51.85,51.85 z m -24.65,-328.98 c -26.36,-0.84 -45.06,-5.1 -58.66,-12.74 -17,-9.35 -24.65,-25.5 -24.65,-45.91 0,-34.85 22.95,-55.26 59.5,-55.26 37.41,0 64.61,18.71 78.21,29.77 v 85.84 z m -137.72,328.98 c 0,29.75 23.81,52.7 51.86,52.7 28.9,0 52.7,-22.95 52.7,-52.7 0,-28.9 -23.8,-51.85 -52.7,-51.85 -28.05,0 -51.86,22.95 -51.86,51.85 z m 200.62,-476.03 c -28.9,-26.349 -65.45,-46.759 -115.61,-46.759 -76.5,0 -133.46,50.999 -133.46,128.359 0,54.41 26.35,88.4 68,109.67 28.06,14.43 62.91,21.25 103.71,22.95 l 68.86,2.53 v 12.76 c 0,46.76 -30.6,67.15 -77.35,67.15 -39.96,0 -76.52,-12.74 -105.41,-28.05 l -33.16,65.47 c 47.61,26.35 99.46,39.94 155.56,39.94 107.96,0 161.51,-49.3 161.51,-146.21 v -163.2 c 0,-46.76 1.7,-81.619 7.66,-102.869 h -85.01 l -15.3,38.259"
         style="fill:#231f20;fill-opacity:1;fill-rule:nonzero;stroke:none"
         id="path98"
         inkscape:connector-curvature="0" /><path
         d="m 9773.71,1076.57 v 223.57 h -72.25 v 79.06 h 72.25 v 93.5 l 101.15,29.77 V 1379.2 h 121.57 l -24.65,-79.06 h -96.92 v -198.9 c 0,-37.41 12.76,-51.02 39.1,-51.02 23.81,0 45.91,9.36 61.22,19.55 l 30.62,-69.71 c -28.92,-19.548 -77.38,-31.439 -117.33,-31.439 -71.41,0 -114.76,40.799 -114.76,107.949"
         style="fill:#231f20;fill-opacity:1;fill-rule:nonzero;stroke:none"
         id="path100"
         inkscape:connector-curvature="0" /></g><path
       style="opacity:1;fill:#611343;fill-opacity:1;stroke:none;stroke-width:3.64724398;stroke-linecap:round;stroke-linejoin:round;stroke-miterlimit:4;stroke-dasharray:none;stroke-dashoffset:0;stroke-opacity:1;paint-order:normal"
       d="M 24.235807,361.66107 C 11.635555,360.6275 1.1485285,359.60412 0.93130389,359.3869 c -1.0906352,-1.09064 4.78521521,-35.29107 9.40310811,-54.73087 22.70805,-95.59336 63.75313,-159.28999 116.521028,-180.8255 23.58505,-9.62548 51.35568,-11.43322 70.95112,-4.6186 32.86154,11.42812 53.38234,48.74545 56.18101,102.16585 l 0.52908,10.09894 h -24.95299 -24.95301 l -0.50415,-12.07913 c -0.75926,-18.19131 -4.03416,-31.61477 -9.94364,-40.75788 -7.06121,-10.92507 -16.08201,-14.50335 -30.64166,-12.15463 -37.4422,6.04008 -70.367579,41.69686 -90.960113,98.50594 -9.112747,25.13953 -18.567021,66.34723 -21.52317,93.81157 -0.473317,4.39738 -0.720524,4.93858 -2.212704,4.84408 -0.923922,-0.0585 -11.989155,-0.95203 -24.589406,-1.9856 z"
       id="path871"
       inkscape:connector-curvature="0"
       transform="matrix(0.75000002,0,0,-0.75000002,0,357.05001)" /><path
       style="opacity:1;fill:#611343;fill-opacity:1;stroke:none;stroke-width:3.64724398;stroke-linecap:round;stroke-linejoin:round;stroke-miterlimit:4;stroke-dasharray:none;stroke-dashoffset:0;stroke-opacity:1;paint-order:normal"
       d="m 203.57994,319.00088 v -47.1284 h 25.34636 25.34636 v 47.1284 47.12839 H 228.9263 203.57994 Z"
       id="path873"
       inkscape:connector-curvature="0"
       transform="matrix(0.75000002,0,0,-0.75000002,0,357.05001)" /><path
       style="opacity:1;fill:#611343;fill-opacity:1;stroke:none;stroke-width:3.64724398;stroke-linecap:round;stroke-linejoin:round;stroke-miterlimit:4;stroke-dasharray:none;stroke-dashoffset:0;stroke-opacity:1;paint-order:normal"
       d="M 290.70806,115.83394 V 0.19116206 h 25.34636 25.34636 V 29.89393 59.596699 h 36.83143 36.83144 v 24.950325 24.950326 h -36.83144 -36.83143 v 60.98968 60.98969 h -25.34636 -25.34636 z"
       id="path875"
       inkscape:connector-curvature="0"
       transform="matrix(0.75000002,0,0,-0.75000002,0,357.05001)" /><path
       style="opacity:1;fill:#611343;fill-opacity:1;stroke:none;stroke-width:3.64724398;stroke-linecap:round;stroke-linejoin:round;stroke-miterlimit:4;stroke-dasharray:none;stroke-dashoffset:0;stroke-opacity:1;paint-order:normal"
       d="m 367.93525,474.86948 c -43.25125,-5.9814 -67.5137,-53.46425 -76.0021,-148.73994 -1.32853,-14.91176 -2.80478,-40.63006 -2.80749,-48.91056 l -0.002,-5.3465 h 24.93523 24.93524 l 0.36281,1.78217 c 0.19954,0.98019 0.57688,6.05936 0.83853,11.28705 1.0642,21.26291 5.59238,57.9335 9.55834,77.40643 8.65748,42.50834 20.82023,63.33479 35.80494,61.30927 4.64705,-0.62815 15.49353,-5.74162 21.94692,-10.34667 10.19799,-7.27713 23.90461,-23.70275 30.1179,-36.09243 1.20157,-2.39602 2.29049,-4.47538 2.41981,-4.6208 0.12931,-0.14541 9.15897,7.22067 20.0659,16.3691 l 19.83079,16.6335 -4.40625,6.60104 c -22.25969,33.34738 -52.51686,56.74168 -80.16175,61.97962 -6.13114,1.16167 -21.26941,1.54167 -27.43707,0.68872 z"
       id="path877"
       inkscape:connector-curvature="0"
       transform="matrix(0.75000002,0,0,-0.75000002,0,357.05001)" /></g></svg>