<?xml version="1.0" encoding="UTF-8" standalone="no"?>
<!-- Created with Inkscape (http://www.inkscape.org/) -->

<svg
   xmlns:dc="http://purl.org/dc/elements/1.1/"
   xmlns:cc="http://creativecommons.org/ns#"
   xmlns:rdf="http://www.w3.org/1999/02/22-rdf-syntax-ns#"
   xmlns:svg="http://www.w3.org/2000/svg"
   xmlns="http://www.w3.org/2000/svg"
   xmlns:sodipodi="http://sodipodi.sourceforge.net/DTD/sodipodi-0.dtd"
   xmlns:inkscape="http://www.inkscape.org/namespaces/inkscape"
   version="1.1"
   id="svg2"
   xml:space="preserve"
   width="1574.88"
   height="447.17334"
   viewBox="0 0 1574.88 447.17334"
   sodipodi:docname="uni-siegen_farbig_cmyk.svg"
   inkscape:version="0.92.4 (5da689c313, 2019-01-14)"><metadata
     id="metadata8"><rdf:RDF><cc:Work
         rdf:about=""><dc:format>image/svg+xml</dc:format><dc:type
           rdf:resource="http://purl.org/dc/dcmitype/StillImage" /><dc:title></dc:title></cc:Work></rdf:RDF></metadata><defs
     id="defs6" /><sodipodi:namedview
     pagecolor="#ffffff"
     bordercolor="#666666"
     borderopacity="1"
     objecttolerance="10"
     gridtolerance="10"
     guidetolerance="10"
     inkscape:pageopacity="0"
     inkscape:pageshadow="2"
     inkscape:window-width="640"
     inkscape:window-height="480"
     id="namedview4"
     showgrid="false"
     inkscape:zoom="0.41352061"
     inkscape:cx="719.96939"
     inkscape:cy="490.18804"
     inkscape:current-layer="g10" /><g
     id="g10"
     inkscape:groupmode="layer"
     inkscape:label="ink_ext_XXXXXX"
     transform="matrix(1.3333333,0,0,-1.3333333,0,447.17333)"><g
       id="g12"
       transform="scale(0.1)"><path
         d="m 11360.9,1199.51 h 164.9 v 770.41 h 243.3 l 42.5,134.64 h -715 v -134.64 h 264.3 z m -514.1,962.65 c 45.4,0 83.5,37.44 83.5,83.52 0,46.8 -38.1,85.68 -83.5,85.68 -46.8,0 -84.2,-38.88 -84.2,-85.68 0,-46.08 37.4,-83.52 84.2,-83.52 z m -262.8,0 c 46.8,0 85.7,37.44 85.7,83.52 0,46.8 -38.9,85.68 -85.7,85.68 -45.4,0 -83.5,-38.88 -83.5,-85.68 0,-46.08 38.1,-83.52 83.5,-83.52 z m 19.4,-601.2 h 224 l -63.4,179.28 c -24.5,69.12 -36.7,110.16 -45.4,140.4 h -2.1 c -8.7,-31.68 -22.3,-71.28 -46.8,-141.84 l -66.3,-177.84 z m -302.4,-361.45 350.7,909.37 h 126 l 362.9,-909.37 h -174.3 l -87.8,226.81 h -323.3 l -85,-226.81 H 10301 Z m -388.75,0 h 164.85 v 770.41 h 243.4 l 42.5,134.64 h -714.28 v -134.64 h 263.53 v -770.41 z m -558.01,0 h 164.88 v 905.05 h -164.88 v -905.05 z m -776.15,64.81 c 68.39,-48.24 167.75,-78.48 273.59,-78.48 185.04,0 322.56,98.63 322.56,259.91 0,286.57 -391.68,264.25 -391.68,430.57 0,72.72 60.49,97.92 123.85,97.92 71.27,0 143.99,-20.88 215.99,-58.32 v 151.2 c -49.69,25.2 -128.16,45.36 -221.77,45.36 -187.92,0 -293.75,-116.64 -293.75,-249.84 0,-275.76 391.67,-253.44 391.67,-430.56 0,-78.49 -75.59,-107.28 -151.19,-107.28 -82.8,0 -151.2,28.79 -205.2,65.52 l -64.07,-126 z m -600.49,423.36 v 282.24 h 75.6 c 48.96,0 79.2,-10.8 101.52,-25.92 39.6,-23.76 60.49,-66.24 60.49,-114.48 0,-56.16 -24.49,-97.2 -63.37,-119.52 -27.36,-15.12 -57.6,-22.32 -100.08,-22.32 h -74.16 z m -164.89,-488.17 h 164.89 v 353.53 h 77.76 c 22.32,-5.75 55.44,-43.21 99.36,-123.84 l 130.32,-229.69 h 190.08 l -151.19,264.25 c -48.26,82.08 -85.69,131.76 -113.05,146.87 v 2.89 c 104.39,32.4 177.12,111.6 177.12,232.56 0,92.16 -38.17,175.68 -134.64,221.04 -47.52,23.76 -108.72,37.44 -193.68,37.44 h -246.97 v -905.05 z m -689.75,0 h 501.12 v 134.65 h -336.24 v 259.92 h 289.45 V 1728 h -289.45 v 241.92 h 290.88 l 43.92,134.64 h -499.68 v -905.05 z m -622.8,-5.75 h 133.2 l 370.08,910.8 h -179.28 l -187.92,-490.32 c -28.8,-72.72 -49.68,-133.2 -67.69,-185.04 h -2.14 c -19.45,53.28 -40.34,113.76 -66.25,184.32 l -189.36,491.04 h -180 l 369.36,-910.8 z m -653.76,5.75 h 164.17 v 905.05 H 5846.4 v -905.05 z m -1036.08,0 h 164.88 v 513.37 c 0,50.4 0,102.96 -2.16,140.4 h 2.16 c 30.24,-43.2 61.92,-88.56 102.24,-138.96 l 399.6,-514.81 h 151.2 v 905.05 h -166.32 v -481.68 c 0,-49.68 0,-104.4 2.88,-152.64 h -2.88 c -27.36,41.04 -60.48,86.4 -101.52,140.39 l -386.64,493.93 h -163.44 v -905.05 z m -588.24,-13.67 c 166.32,0 285.12,57.6 341.28,174.24 23.04,46.8 33.84,107.28 33.84,177.84 v 566.64 h -164.88 v -554.4 c 0,-49.68 -7.92,-90.72 -24.48,-123.84 -31.68,-64.8 -95.04,-101.52 -185.76,-101.52 -90.72,0 -153.36,36.72 -185.04,101.52 -16.56,33.12 -25.2,74.16 -25.2,122.4 v 555.84 h -164.88 v -566.64 c 0,-69.12 11.52,-129.6 34.56,-176.4 54.72,-118.08 173.52,-175.68 340.56,-175.68 v 0"
         style="fill:#231f20;fill-opacity:1;fill-rule:evenodd;stroke:none"
         id="path14"
         inkscape:connector-curvature="0" /><path
         d="m 7326.01,13.6797 h 164.87 V 527.75 c 0,51.129 0,102.961 -2.16,140.41 h 2.16 c 30.23,-42.488 61.92,-87.84 102.25,-138.961 L 7992.71,13.6797 h 151.22 V 919.441 H 7977.6 V 437.039 c 0,-49.68 0,-104.398 2.88,-152.641 h -2.88 c -27.37,41.043 -60.48,86.403 -101.53,140.403 l -385.91,494.64 h -164.15 z m -689.77,0 h 501.85 V 148.32 h -336.98 v 259.918 h 290.17 v 134.641 h -290.17 v 241.922 h 291.6 l 43.93,134.64 h -500.4 V 13.6797 Z M 6427.44,453.59 H 6261.12 V 166.32 c -35.28,-16.558 -90.72,-27.359 -151.2,-27.359 -195.13,0 -308.16,127.437 -308.16,322.559 0,192.949 114.48,327.601 333.36,327.601 97.2,0 178.56,-25.199 249.84,-60.492 v 153.359 c -68.4,25.211 -156.96,45.371 -262.08,45.371 -300.96,0 -496.8,-201.609 -496.8,-476.648 C 5626.08,190.801 5801.76,0 6097.68,0 c 126.71,0 247.68,31.6797 329.76,72.7188 V 453.59 Z M 4974.48,13.6797 h 501.84 V 148.32 h -336.96 v 259.918 h 290.16 v 134.641 h -290.16 v 241.922 h 291.6 l 43.92,134.64 h -500.4 V 13.6797 Z m -385.2,0 h 165.6 V 919.441 h -165.6 V 13.6797 Z M 3813.12,78.4805 C 3882.24,30.2383 3980.88,0 4086.72,0 c 185.76,0 322.56,98.6289 322.56,259.91 0,287.289 -390.96,264.961 -390.96,431.289 0,72.723 59.76,97.922 123.12,97.922 72,0 144.72,-20.883 216,-58.32 v 151.187 c -49.68,25.211 -128.16,45.371 -221.04,45.371 -188.64,0 -294.48,-116.648 -294.48,-249.839 0,-276.481 391.68,-254.161 391.68,-431.282 0,-78.488 -75.6,-107.277 -151.2,-107.277 -82.08,0 -151.2,28.789 -204.48,65.519 l -64.8,-125.9995 v 0"
         style="fill:#231f20;fill-opacity:1;fill-rule:evenodd;stroke:none"
         id="path16"
         inkscape:connector-curvature="0" /><path
         d="M 0,2104.56 H 1249.2 V 848.879 c 0,-498.25 590.4,-329.758 590.4,0 V 2204.64 l -245.52,-184.32 -7.92,682.56 881.28,650.88 874.08,-650.88 v -682.56 l -253.44,191.52 V 13.6797 H 1839.6 V 182.16 C 1333.44,-147.602 0,-101.52 0,1017.36 v 1087.2"
         style="fill:#2154ac;fill-opacity:1;fill-rule:evenodd;stroke:none"
         id="path18"
         inkscape:connector-curvature="0" /></g><path
       style="opacity:1;fill:#030085;fill-opacity:1;stroke:none;stroke-width:3.64724398;stroke-linecap:round;stroke-linejoin:round;stroke-miterlimit:4;stroke-dasharray:none;stroke-dashoffset:0;stroke-opacity:1;paint-order:normal"
       d="M 111.53539,441.87994 C 49.781827,427.97967 13.384904,393.37673 3.7610145,339.41775 1.4494093,326.45709 0.43899845,297.98886 0.37984252,244.15357 L 0.29547429,167.37385 H 82.382843 164.47021 l 0.73801,91.28928 c 0.69692,86.20666 1.00728,91.74645 5.57452,99.50041 7.65313,12.99296 16.29159,18.1321 30.12773,17.92338 15.15713,-0.22876 31.34415,-9.26718 39.18676,-21.88116 5.64163,-9.07393 5.65278,-9.25835 6.36027,-105.21567 0.38979,-52.86919 -0.0554,-96.1258 -0.98939,-96.1258 -0.93395,0 -7.23806,4.14963 -14.00914,9.2214 -6.77108,5.07176 -13.67132,10.03296 -15.33387,11.02488 -2.37548,1.41727 -2.99821,-7.67826 -2.90788,-42.47246 l 0.11494,-44.275946 55.96973,-41.110405 C 300.08527,22.641036 326.57176,3.8132113 328.16077,3.4121483 329.74981,3.0110851 356.7461,21.895821 388.15254,45.378227 l 57.10261,42.695286 v 43.420277 c 0,34.0859 -0.64983,43.03256 -3.02282,41.61678 -1.66255,-0.99192 -8.56279,-5.95312 -15.33387,-11.02488 -6.77107,-5.07177 -13.02832,-9.2214 -13.90499,-9.2214 -0.87666,0 -1.59394,65.293 -1.59394,145.09555 v 145.09555 h -82.22081 -82.22081 v -10.75511 -10.75512 l -15.11412,7.0345 c -8.31277,3.86898 -21.64342,8.78532 -29.62368,10.92521 -20.61588,5.52814 -70.83381,6.84339 -90.68472,2.37507 z"
       id="path839"
       inkscape:connector-curvature="0"
       transform="matrix(0.75000002,0,0,-0.75000002,0,335.38001)" /></g></svg>